<svg version="1.1" id="Layer_1" xmlns="http://www.w3.org/2000/svg" xmlns:xlink="http://www.w3.org/1999/xlink" x="0px" y="0px" viewBox="0 0 211.4 52.5" style="enable-background:new 0 0 211.4 52.5;" xml:space="preserve">
 <g>
  <path d="M52.4,36.3L52.4,36.3c-0.8,0-2.3-0.5-2.3-2.6c0-1.2,0-8.6,0-15.2l10.7,0c0-1.4-0.1-7.8-0.1-7.8H50.1c0-2.2,0-3.6,0-3.6
		l0-7.2c-1.4,0-7.8,0-7.8,0v10.7l-26.7,0c0,0-6.2,0-8.9,4.5C4.8,18,5.1,20.7,5.1,21c0,0.4-0.3,3,1.6,5.8c2.6,4.5,8.9,4.5,8.9,4.5
		l14.1,0c2.3,0,2.6,1.7,2.6,2.5c0,0.7-0.3,2.4-2.6,2.4c-2.3,0-26.7,0-26.7,0l-2.9,0C0,37.6,0,44,0,44l29.3,0c0,0,6.3,0,8.9-4.5
		c1.8-2.8,1.6-5.4,1.6-5.8c0-0.4,0.2-3-1.6-5.8c-2.6-4.5-8.9-4.5-8.9-4.5l-14.1,0c-2.3,0-2.6-1.7-2.6-2.5c0-0.7,0.3-2.5,2.6-2.5
		c2.3,0,26.7,0,26.7,0h0.3l0,15.1c0,0,0,6.3,4.5,8.9c2.6,1.7,5.2,1.7,5.7,1.7h8.3v-7.8H52.4z">
  </path>
  <path d="M81.4,25.8l7.8,0V21c0-0.5,0.1-3.1-1.7-5.7c-2.6-4.5-8.9-4.5-8.9-4.5l-14.7,0v0h-0.1L64,44.1l7.8,0l0-25.5l6.6,0
		c2.7,0,3,2,3.1,2.8c0,0,0-0.4,0-0.4V25.8z">
  </path>
  <path d="M203.6,25.8h7.8l0-4.8c0-0.5,0.1-3.1-1.6-5.7c-2.6-4.5-8.9-4.5-8.9-4.5l-14.7,0v0h-0.1l0.1,33.3l7.8,0l0-25.5h6.6
		c2.6,0,3,2,3.1,2.8c0,0,0-0.4,0-0.4V25.8z">
  </path>
  <path d="M88,44.7v7.8l9.8,0c0.5,0,3.1,0.1,5.7-1.7c3.7-2.2,5-7.4,5.4-8.9c0.5-1.7,9.1-31.1,9.1-31.1s-6.2,0-7.6,0l-6.8,23.7
		l-6.8-23.7c-1.4,0-7.6,0-7.6,0L98.5,42l0.3,0.8c0.2,0.7,0.2,1.8-1.1,1.9h-0.9L88,44.7z">
  </path>
  <path d="M128.4,23.6l0-23.5c0,0-6.4,0-7.8,0l0,18.7V45l7.8,0v-9.6l4.4-5.5l8.6,15.2h8.9l-0.7-1.3c0,0-7.8-13.8-11.2-20l11-13.2
		l-10.2,0L128.4,23.6z">
  </path>
  <path d="M156.5,24.1c1.4-3.6,4.9-6.1,9-6.1c4.1,0,7.5,2.5,9,6.1L156.5,24.1z M182.8,27.7c0-9.6-7.8-17.3-17.3-17.3
		c-9.6,0-17.3,7.8-17.3,17.3c0,9.4,7.5,17,16.9,17.3v0l11.3,0l0-7.4h-10.6l-1-0.1c-3.8-0.1-7.1-2.9-8.4-6.7l26.2,0
		C182.7,29.8,182.8,28.8,182.8,27.7">
  </path>
 </g>
</svg>